<?xml version="1.0" encoding="UTF-8" standalone="no"?>
<!-- Created with Inkscape (http://www.inkscape.org/) -->

<svg
   xmlns:dc="http://purl.org/dc/elements/1.1/"
   xmlns:cc="http://creativecommons.org/ns#"
   xmlns:rdf="http://www.w3.org/1999/02/22-rdf-syntax-ns#"
   xmlns:svg="http://www.w3.org/2000/svg"
   xmlns="http://www.w3.org/2000/svg"
   xmlns:sodipodi="http://sodipodi.sourceforge.net/DTD/sodipodi-0.dtd"
   xmlns:inkscape="http://www.inkscape.org/namespaces/inkscape"
   width="500"
   height="500"
   viewBox="0 0 132.29168 132.29167"
   version="1.1"
   id="svg8"
   sodipodi:docname="rqt2.svg"
   inkscape:version="0.92.5 (2060ec1f9f, 2020-04-08)">
  <defs
     id="defs2" />
  <sodipodi:namedview
     id="base"
     pagecolor="#ffffff"
     bordercolor="#666666"
     borderopacity="1.0"
     inkscape:pageopacity="0.0"
     inkscape:pageshadow="2"
     inkscape:zoom="1.4"
     inkscape:cx="69.951629"
     inkscape:cy="262.27824"
     inkscape:document-units="mm"
     inkscape:current-layer="g422"
     showgrid="false"
     units="px"
     inkscape:window-width="3840"
     inkscape:window-height="2123"
     inkscape:window-x="1920"
     inkscape:window-y="0"
     inkscape:window-maximized="1" />
  <metadata
     id="metadata5">
    <rdf:RDF>
      <cc:Work
         rdf:about="">
        <dc:format>image/svg+xml</dc:format>
        <dc:type
           rdf:resource="http://purl.org/dc/dcmitype/StillImage" />
        <dc:title></dc:title>
      </cc:Work>
    </rdf:RDF>
  </metadata>
  <g
     inkscape:label="Layer 1"
     inkscape:groupmode="layer"
     id="layer1"
     transform="translate(0,-164.70831)">
    <g
       transform="translate(2.1789448,164.81332)"
       id="g422">
      <g
         transform="matrix(0.88170482,0,0,0.88170482,22.891864,2.4880758)"
         id="g248"
         style="fill:#ff7f2a">
        <path
           id="path245"
           d="m 79.44102,141.20434 c -3.04055,-1.60592 -4.20137,-3.42089 -4.20137,-6.56888 0,-1.95551 0.3013,-2.7776 1.19291,-3.25477 1.54277,-0.82566 1.6252,-0.81583 2.77175,0.33072 0.53302,0.53302 0.96914,1.74822 0.96914,2.70044 0,3.88938 6.86183,4.06204 14.63966,0.36836 8.99001,-4.26933 15.25198,-12.77132 15.99067,-21.71085 0.30333,-3.67082 0.088,-5.0049 -1.65216,-10.2382 -2.14741,-6.457902 -5.11001,-11.806252 -6.31694,-11.403942 -0.4086,0.1362 -1.18333,-0.29626 -1.72162,-0.96102 -0.81962,-1.01218 -1.19758,-1.09153 -2.32502,-0.48814 -1.11218,0.59522 -1.34631,0.55587 -1.34631,-0.22627 0,-0.52073 -0.43453,-0.94678 -0.96563,-0.94678 -1.88882,0 -3.39695,1.33277 -5.27633,4.66284 -1.91664,3.3961 -3.78499,5.20475 -5.37656,5.20475 -0.62802,0 -0.74719,-0.45715 -0.44213,-1.69599 1.12574,-4.57163 1.1111,-4.9635 -0.21189,-5.67155 -0.82265,-0.44026 -1.29885,-1.3043 -1.30484,-2.36756 -0.0113,-2.00054 -0.52444,-2.85306 -2.0589,-3.42047 -0.72543,-0.26825 -1.00621,-0.7799 -0.76828,-1.39994 1.20581,-3.142283 1.11111,-3.948071 -0.64331,-5.473582 -0.96922,-0.842772 -4.81501,-3.472096 -8.54619,-5.842958 -6.10206,-3.877346 -6.86147,-4.207658 -7.55488,-3.28608 -0.424,0.563507 -0.77091,1.69931 -0.77091,2.524006 0,1.257625 -0.14802,1.376609 -0.91779,0.737757 -1.70418,-1.414347 -1.73399,0.936582 -0.0519,4.096314 2.73687,5.141188 1.39015,7.234533 -1.88867,2.935775 -1.38153,-1.811277 -1.98344,-2.153577 -3.31771,-1.88672 -1.22026,0.24405 -2.54517,-0.29514 -5.27076,-2.145005 -2.00243,-1.359045 -4.82523,-2.787792 -6.27291,-3.174984 -2.7766,-0.742622 -3.11645,-1.13661 -1.86122,-2.157672 1.02841,-0.836549 7.86324,-2.541724 7.86324,-1.961745 0,0.250619 -0.41629,0.615411 -0.92509,0.81066 -1.46718,0.563008 -1.07793,1.460915 0.77091,1.778288 0.93279,0.160126 2.16346,0.491856 2.73481,0.737183 0.96266,0.413347 0.95929,0.236551 -0.0459,-2.411571 -0.5966,-1.571686 -1.81098,-3.58386 -2.69862,-4.471499 l -1.61388,-1.613888 -1.82545,1.954147 c -1.62453,1.739027 -2.20115,1.954141 -5.23824,1.954141 -4.31744,0 -6.74048,-0.869576 -6.44929,-2.314511 0.1852,-0.919025 0.80996,-1.048056 4.24836,-0.877427 3.00083,0.148908 4.22556,-0.0341 4.79148,-0.716004 0.85731,-1.032983 0.43608,-1.453311 -2.27739,-2.27255 -1.58158,-0.477505 -1.58914,-0.499583 -0.18829,-0.550469 1.41652,-0.05143 1.39433,-0.125035 -0.75525,-2.504358 -1.21806,-1.34824 -2.38427,-3.22154 -2.59158,-4.16289 -0.75199,-3.414476 -2.00201,-6.032878 -2.97298,-6.227418 -0.54574,-0.109339 -4.53211,0.792744 -8.8586,2.004626 -10.04691,2.814231 -13.1448,2.878185 -15.69888,0.324107 -2.3624903,-2.362492 -2.18632,-3.89364 1.35217,-11.75214 2.10151,-4.667136 2.75587,-7.102174 3.74479,-13.935005 0.65908,-4.553801 1.03154,-8.944114 0.82771,-9.75626 -0.20384,-0.81214 -1.73125,-3.031496 -3.39426,-4.9319082 -2.52461,-2.885018 -3.02364,-3.856507 -3.02364,-5.886295 0,-1.394094 0.29686,-2.431011 0.69598,-2.431011 0.38279,0 3.36173,1.13893 6.61986,2.530957 5.03809,2.152504 6.3366,2.474379 8.68414,2.152615 2.68072,-0.367438 2.98743,0.49634 0.34321,0.966574 -0.85481,0.152016 -1.48472,1.069659 -2.05197,2.9893 -1.20321,4.0717562 -1.93203,5.3359732 -3.48376,6.0429862 -1.22051,0.556107 -1.48335,1.379144 -2.13901,6.697911 -1.06467,8.6368 -1.65175,10.922862 -4.38849,17.088626 -1.33639,3.010824 -2.42979,5.987827 -2.42979,6.615572 0,0.627745 0.68254,1.588571 1.51675,2.135168 1.73287,1.13542 2.42925,1.042554 12.05119,-1.607129 3.56158,-0.980789 7.45105,-1.877851 8.64327,-1.993475 1.19222,-0.115623 3.76926,-0.874053 5.72677,-1.685391 3.43668,-1.424423 3.54497,-1.539473 3.14846,-3.344792 -0.3708,-1.688259 -0.31167,-1.787489 0.60956,-1.02293 1.22589,1.017398 1.90533,0.479614 1.94414,-1.538789 0.0302,-1.570384 -0.59283,-1.956817 -1.3028,-0.808069 -0.29395,0.475624 -0.57986,0.428876 -0.943,-0.154182 -0.36673,-0.588836 -0.11549,-0.93887 0.848,-1.181434 1.07452,-0.27052 1.33751,-0.735 1.22218,-2.158535 -0.0808,-0.99762 -0.14612,-2.230137 -0.14508,-2.738935 10e-4,-0.508798 -0.002,-1.580085 -0.006,-2.380637 -0.0116,-2.19605 -2.51329,-6.253505 -3.85554,-6.253505 -0.73479,0 -1.48051,-0.787791 -2.06114,-2.177438 -1.02138,-2.444579 -3.61343,-4.299815 -7.5072,-5.373236 -1.84012,-0.507275 -2.62108,-1.051966 -2.62108,-1.828101 0,-0.608047 -0.41629,-1.10554 -0.92509,-1.10554 -1.69053,0 -0.96239,-2.4747732 1.50404,-5.1118562 1.94752,-2.082265 2.58335,-2.444357 3.20697,-1.826294 0.42781,0.423998 1.49623,0.770906 2.37427,0.770906 0.87803,0 2.68512,0.555052 4.01576,1.233449 1.79956,0.91747 3.63694,1.233448 7.17229,1.233448 5.53552,0 6.70401,0.32927 6.70401,1.889138 0,0.9879192 0.59801,1.1646842 4.47125,1.3216472 4.08216,0.16543 4.48817,0.300178 4.66566,1.548428 0.14867,1.045663 0.72889,1.452911 2.4669,1.731528 4.38279,0.702585 4.90274,0.905518 5.19629,2.028055 0.25711,0.983219 0.79529,1.095475 4.10436,0.856125 2.93709,-0.212456 4.06232,-0.0457 4.91809,0.72874 0.92072,0.833238 1.45163,0.884999 3.11822,0.304026 1.52179,-0.5305 2.55666,-0.519306 4.2701,0.04619 1.24385,0.410511 2.6065,0.654672 3.02813,0.542595 0.42163,-0.112084 1.12075,0.489105 1.55362,1.335966 0.47079,0.921041 2.85485,2.657305 5.93308,4.320957 6.29385,3.401525 8.57215,6.120767 14.98337,17.883182 7.67702,14.084746 9.1986,19.12994 7.03263,23.318474 -0.84529,1.634597 -0.91115,2.59694 -0.39644,5.792954 0.50412,3.130289 0.44757,4.09167 -0.30855,5.245654 -0.50918,0.777104 -1.19692,1.412922 -1.5283,1.412922 -0.33138,0 -0.60251,0.82427 -0.60251,1.831708 0,1.311434 -0.51455,2.212141 -1.81157,3.171062 -3.80188,2.810851 -3.98848,7.595531 -0.73179,18.763533 2.6831,9.20101 2.93607,12.34593 1.39756,17.37441 -2.66831,8.72112 -9.62497,17.63625 -16.12249,20.66133 -6.79554,3.16384 -16.78601,3.96856 -21.08433,1.69832 z m 6.40267,-67.128091 c 0.68189,-0.606869 -5.24718,-8.025589 -6.44115,-8.059441 -0.77911,-0.02209 -1.07927,-0.540757 -1.07927,-1.864938 0,-2.119016 -2.36733,-3.716184 -5.50814,-3.716184 -1.49344,0 -1.94909,0.31889 -2.26731,1.586789 -0.21904,0.872733 -1.05691,1.837203 -1.86192,2.143271 -0.80502,0.306062 -1.46367,0.784776 -1.46367,1.063807 0,0.279025 1.7252,1.604143 3.83378,2.944705 2.10857,1.340561 5.3695,3.444029 7.24651,4.674382 2.61549,1.71442 3.84496,2.163599 5.26291,1.922799 1.01759,-0.172806 2.04281,-0.485646 2.27826,-0.69519 z M 56.05133,54.49465 c 1.18228,-0.828106 1.37685,-1.384281 1.09399,-3.127304 -0.37806,-2.329745 -3.5505,-9.433392 -4.21289,-9.433392 -0.908,0 -4.78684,5.189606 -5.1647,6.909984 l -0.40227,1.831548 -1.54416,-2.272432 c -1.68284,-2.476531 -2.99961,-2.21261 -2.3272,0.466447 0.53101,2.115728 3.34048,4.696732 6.23614,5.729006 3.16629,1.128747 4.5948,1.105281 6.32109,-0.103857 z M 49.31726,17.625829 c 1.04391,-2.74567 -1.7694,-8.9949942 -4.04935,-8.9949942 -0.77658,0 -0.78051,0.226313 -0.0295,1.6959922 0.47666,0.932796 1.0742,2.667333 1.32786,3.854528 0.5838,2.732249 1.40746,4.933795 1.84588,4.933795 0.18639,0 0.5937,-0.670194 0.90513,-1.489321 z M 37.16454,61.859746 c 0.50356,-0.503562 1.69149,-0.815155 2.6769,-0.702141 1.62443,0.186288 1.54922,0.261498 -0.90531,0.905315 -2.35349,0.61731 -2.56753,0.592764 -1.77159,-0.203174 z M 27.88909,34.18993 c -1.34836,-0.944439 -1.74454,-2.898567 -0.98757,-4.871198 0.87869,-2.289842 6.68874,-3.760754 7.41182,-1.876421 0.59143,1.541226 -0.35537,4.063351 -2.22855,5.936522 -2.04786,2.04787 -2.34731,2.105756 -4.1957,0.811097 z"
           style="fill:#ff7f2a;stroke-width:0.61672401"
           inkscape:connector-curvature="0" />
      </g>
      <text
         id="text304"
         y="111.08164"
         x="1.2960438"
         style="font-size:36.33995438px;fill:#ff7f2a;stroke-width:3.02832365"
         xml:space="preserve"><tspan
           y="111.08164"
           x="1.2960438"
           style="font-style:normal;font-variant:normal;font-weight:bold;font-stretch:normal;font-size:36.33995438px;font-family:Gayathri;-inkscape-font-specification:'Gayathri, Normal';font-variant-ligatures:normal;font-variant-caps:normal;font-variant-numeric:normal;fill:#ff7f2a;stroke-width:3.02832365"
           id="tspan302"
           sodipodi:role="line">RQT2</tspan></text>
    </g>
  </g>
</svg>
